<?xml version="1.0" standalone="no"?>
<!DOCTYPE svg PUBLIC "-//W3C//DTD SVG 20010904//EN"
 "http://www.w3.org/TR/2001/REC-SVG-20010904/DTD/svg10.dtd">
<svg version="1.0" xmlns="http://www.w3.org/2000/svg"
 width="720.000000pt" height="720.000000pt" viewBox="0 0 720.000000 720.000000"
 preserveAspectRatio="xMidYMid meet">
<metadata>
Created by potrace 1.14, written by Peter Selinger 2001-2017
</metadata>
<g transform="translate(0.000000,720.000000) scale(0.100000,-0.100000)"
fill="#000000" stroke="none">
<path d="M330 7190 c0 -5 -11 -10 -25 -10 -14 0 -25 -3 -25 -8 0 -4 -19 -15
-42 -25 -53 -24 -161 -132 -185 -185 -10 -23 -21 -42 -25 -42 -5 0 -8 -11 -8
-25 0 -14 -4 -25 -10 -25 -7 0 -10 -507 -10 -1500 0 -1231 2 -1500 13 -1500 7
0 31 -8 53 -19 21 -10 57 -26 79 -36 98 -43 630 -309 729 -364 60 -34 112 -61
117 -61 5 0 9 -4 9 -9 0 -5 8 -11 18 -14 28 -9 153 -85 384 -231 99 -63 339
-229 360 -249 7 -7 49 -39 92 -72 43 -33 84 -64 90 -70 6 -5 40 -35 76 -65
106 -90 220 -198 296 -281 58 -64 70 -71 122 -81 344 -65 713 -86 921 -52 97
15 115 21 186 57 53 27 63 35 97 81 32 45 38 117 14 165 -31 59 -120 118 -236
156 -30 10 -64 21 -75 26 -11 4 -45 15 -75 24 -30 9 -63 20 -72 26 -10 5 -26
9 -36 9 -10 0 -22 4 -28 9 -5 4 -27 13 -49 19 -32 8 -230 76 -305 105 -8 3
-49 17 -90 32 -41 15 -84 30 -95 35 -11 5 -56 23 -100 40 -235 95 -471 215
-645 328 -314 205 -514 471 -599 800 -6 23 -15 59 -21 80 -32 120 -44 264 -44
522 -1 271 11 384 53 530 5 19 16 58 24 87 8 28 22 66 31 84 9 18 16 36 16 41
0 20 75 158 135 248 135 203 345 381 595 505 36 18 83 41 105 50 22 10 55 24
72 32 140 61 451 141 673 173 306 44 430 51 840 47 394 -5 440 -7 740 -47 36
-5 106 -13 155 -19 86 -11 153 -21 260 -41 28 -5 93 -17 145 -25 52 -9 109
-20 126 -25 17 -6 40 -10 52 -10 11 0 31 -4 44 -9 13 -5 61 -17 108 -27 47 -9
89 -21 95 -26 5 -4 19 -8 30 -8 12 0 36 -7 53 -16 l32 -15 2 -740 c1 -406 2
-765 3 -796 l0 -58 -35 1 c-19 1 -57 11 -85 24 -70 31 -76 33 -275 99 -158 52
-249 80 -290 87 -19 3 -44 9 -55 14 -11 5 -36 11 -55 14 -19 3 -60 10 -90 15
-446 77 -720 85 -1045 31 -172 -29 -248 -74 -260 -154 -16 -105 62 -167 290
-231 33 -9 71 -20 85 -25 14 -4 43 -13 65 -19 22 -6 81 -22 130 -36 50 -14
106 -30 125 -35 65 -17 155 -42 180 -50 14 -4 52 -16 85 -25 80 -23 325 -103
350 -115 11 -5 44 -19 74 -30 239 -92 458 -220 621 -362 232 -203 364 -432
433 -753 31 -142 38 -183 52 -315 35 -321 9 -678 -65 -885 -32 -89 -33 -93
-80 -190 -93 -196 -256 -400 -435 -542 -44 -34 -86 -68 -93 -74 -58 -48 -351
-204 -422 -224 -14 -4 -29 -11 -35 -14 -5 -4 -50 -20 -100 -36 -49 -15 -99
-31 -110 -35 -25 -10 -122 -34 -200 -50 -33 -6 -76 -15 -95 -20 -35 -9 -179
-30 -340 -49 -287 -35 -888 -36 -1185 -1 -44 5 -127 14 -185 21 -311 36 -507
74 -815 158 -36 10 -152 49 -180 61 -11 4 -36 14 -55 20 -107 39 -224 98 -232
118 -4 9 -7 316 -7 682 l-1 665 -27 12 c-16 7 -57 24 -93 39 -36 15 -69 31
-74 36 -19 16 -45 8 -48 -14 -2 -13 -2 -402 0 -866 l2 -842 76 -35 c41 -19 77
-35 80 -35 2 0 23 -9 47 -19 23 -11 65 -27 92 -36 28 -9 59 -21 70 -26 29 -12
104 -35 155 -48 25 -7 54 -16 65 -20 20 -9 177 -48 250 -62 22 -4 76 -15 120
-23 144 -28 270 -49 404 -65 82 -10 117 -24 96 -39 -6 -4 -38 -46 -71 -93 -68
-96 -70 -97 -176 -223 l-77 -91 2336 -3 c1551 -1 2340 1 2347 8 5 5 20 10 32
10 39 0 155 68 211 123 56 57 123 172 123 213 0 12 4 26 10 29 7 4 10 704 10
2066 0 1653 -3 2063 -13 2073 -7 7 -44 59 -82 115 -64 94 -231 319 -244 331
-3 3 -19 23 -36 45 -16 22 -31 42 -34 45 -4 3 -46 52 -96 110 -200 235 -553
583 -734 726 -13 10 -43 35 -65 55 -23 19 -69 57 -103 84 l-63 48 0 218 c0
210 -1 219 -19 219 -11 0 -22 4 -25 9 -3 5 -18 11 -33 14 -16 3 -75 17 -133
32 -58 14 -175 40 -260 56 -85 17 -171 34 -190 39 -19 5 -82 16 -139 25 -92
15 -159 39 -206 75 -10 8 -28 18 -140 80 -33 18 -71 40 -85 49 -14 9 -52 30
-85 46 -33 17 -62 32 -65 35 -3 3 -93 49 -200 104 -107 54 -199 102 -205 107
-13 13 -3615 12 -3615 -1z"/>
</g>
</svg>
